<svg id="REG__4px_" data-name="REG_[4px]" xmlns="http://www.w3.org/2000/svg" viewBox="0 0 80 80"><defs><style>.cls-1{fill:none;stroke:#000;stroke-linecap:round;stroke-linejoin:round;stroke-width:4px;}</style></defs><path class="cls-1" d="M48,34.66H35.58a4,4,0,0,1-4-4V18.26Z"/><path class="cls-1" d="M31.58,18.26H14a4,4,0,0,0-4,4v43.8a4,4,0,0,0,4,4H44a4,4,0,0,0,4-4V34.66"/><path class="cls-1" d="M70,26.46H57.6a4,4,0,0,1-4-4V10.06Z"/><path class="cls-1" d="M54.6,61.86H66a4,4,0,0,0,4-4V26.46"/><line class="cls-1" x1="53.6" y1="10.06" x2="31.58" y2="10.06"/></svg>