<svg xmlns="http://www.w3.org/2000/svg" viewBox="0 0 15 13.35"><defs><style>.cls-1{fill:#ff4500;}</style></defs><title>22Asset 6</title><g id="Layer_2" data-name="Layer 2"><g id="Capa_1" data-name="Capa 1"><path class="cls-1" d="M7.5,13.35a.89.89,0,0,1-.58-.22L5.21,11.66h0a31.71,31.71,0,0,1-3.72-3.5A5.54,5.54,0,0,1,0,4.51a4.67,4.67,0,0,1,1.19-3.2A4,4,0,0,1,4.19,0,3.77,3.77,0,0,1,6.55.81a5,5,0,0,1,1,1,5,5,0,0,1,.95-1A3.77,3.77,0,0,1,10.81,0a4,4,0,0,1,3,1.31A4.67,4.67,0,0,1,15,4.51a5.54,5.54,0,0,1-1.49,3.65,31.71,31.71,0,0,1-3.72,3.5L8.08,13.13A.89.89,0,0,1,7.5,13.35Z"/></g></g></svg>